<svg width="151" height="154" viewBox="0 0 151 154" fill="none" xmlns="http://www.w3.org/2000/svg">
<g filter="url(#filter0_d_107_87)">
<mask id="path-1-outside-1_107_87" maskUnits="userSpaceOnUse" x="82" y="-0.115112" width="65" height="68" fill="black">
<rect fill="white" x="82" y="-0.115112" width="65" height="68"/>
<path fill-rule="evenodd" clip-rule="evenodd" d="M145.996 66H83V1.88489C118.058 3.39385 146 31.2177 146 65.3205C146 65.5472 145.999 65.7738 145.996 66Z"/>
</mask>
<path fill-rule="evenodd" clip-rule="evenodd" d="M145.996 66H83V1.88489C118.058 3.39385 146 31.2177 146 65.3205C146 65.5472 145.999 65.7738 145.996 66Z" fill="#A020F0" fill-opacity="0.5" shape-rendering="crispEdges"/>
<path d="M145.996 66V67H146.985L146.996 66.0109L145.996 66ZM83 66H82V67H83V66ZM83 1.88489L83.043 0.885813L82 0.84092V1.88489H83ZM145.996 65H83V67H145.996V65ZM84 66V1.88489H82V66H84ZM82.957 2.88396C117.517 4.37148 145 31.7894 145 65.3205H147C147 30.646 118.6 2.41622 83.043 0.885813L82.957 2.88396ZM145 65.3205C145 65.5436 144.999 65.7665 144.996 65.9891L146.996 66.0109C146.999 65.781 147 65.5509 147 65.3205H145Z" fill="#AAAAAA" mask="url(#path-1-outside-1_107_87)"/>
</g>
<g filter="url(#filter1_d_107_87)">
<mask id="path-3-outside-2_107_87" maskUnits="userSpaceOnUse" x="86" y="2.99994" width="59" height="63" fill="black">
<rect fill="white" x="86" y="2.99994" width="59" height="63"/>
<path fill-rule="evenodd" clip-rule="evenodd" d="M143.982 64.4968H141.998H89H87V62.4968V6.99996V4.85051L89.1439 5.00514C119.759 7.21331 144 31.8536 144 62.062C144 62.2124 143.999 62.3627 143.998 62.5128L143.982 64.4968ZM141.998 61.6274C141.995 61.2496 141.988 60.8727 141.977 60.4968C141.176 32.7754 119.157 10.162 91 7.17798C90.3367 7.10768 89.6699 7.04828 89 6.99996L89 9.00533L89 60.4968V62.4968H91H141.998C141.999 62.352 142 62.2071 142 62.062C142 61.917 141.999 61.7721 141.998 61.6274Z"/>
</mask>
<path fill-rule="evenodd" clip-rule="evenodd" d="M143.982 64.4968H141.998H89H87V62.4968V6.99996V4.85051L89.1439 5.00514C119.759 7.21331 144 31.8536 144 62.062C144 62.2124 143.999 62.3627 143.998 62.5128L143.982 64.4968ZM141.998 61.6274C141.995 61.2496 141.988 60.8727 141.977 60.4968C141.176 32.7754 119.157 10.162 91 7.17798C90.3367 7.10768 89.6699 7.04828 89 6.99996L89 9.00533L89 60.4968V62.4968H91H141.998C141.999 62.352 142 62.2071 142 62.062C142 61.917 141.999 61.7721 141.998 61.6274Z" fill="#A020F0" fill-opacity="0.5" shape-rendering="crispEdges"/>
<path d="M143.982 64.4968V65.4968H144.974L144.982 64.5048L143.982 64.4968ZM87 64.4968H86V65.4968H87V64.4968ZM87 4.85051L87.0719 3.8531L86 3.77578V4.85051H87ZM89.1439 5.00514L89.2158 4.00773L89.2158 4.00773L89.1439 5.00514ZM143.998 62.5128L144.998 62.5208L144.998 62.5208L143.998 62.5128ZM141.977 60.4968L140.978 60.5257L140.978 60.5257L141.977 60.4968ZM141.998 61.6274L140.998 61.6354L140.998 61.6354L141.998 61.6274ZM91 7.17798L91.1054 6.18355L91 7.17798ZM89 6.99996L89.0719 6.00255L88 5.92523L88 6.99996L89 6.99996ZM89 9.00533H88H89ZM89 60.4968H90H89ZM89 62.4968H88V63.4968H89V62.4968ZM141.998 62.4968V63.4968H142.99L142.998 62.5048L141.998 62.4968ZM141.998 65.4968H143.982V63.4968H141.998V65.4968ZM89 65.4968H141.998V63.4968H89V65.4968ZM87 65.4968H89V63.4968H87V65.4968ZM86 62.4968V64.4968H88V62.4968H86ZM86 6.99996V62.4968H88V6.99996H86ZM86 4.85051V6.99996H88V4.85051H86ZM89.2158 4.00773L87.0719 3.8531L86.9281 5.84792L89.0719 6.00255L89.2158 4.00773ZM145 62.062C145 31.2935 120.317 6.25099 89.2158 4.00773L89.0719 6.00255C119.2 8.17562 143 32.4137 143 62.062H145ZM144.998 62.5208C144.999 62.368 145 62.2151 145 62.062H143C143 62.2097 142.999 62.3573 142.998 62.5048L144.998 62.5208ZM144.982 64.5048L144.998 62.5208L142.998 62.5048L142.982 64.4888L144.982 64.5048ZM140.978 60.5257C140.988 60.8946 140.995 61.2646 140.998 61.6354L142.998 61.6194C142.995 61.2346 142.988 60.8508 142.977 60.4679L140.978 60.5257ZM90.8946 8.17241C118.587 11.1072 140.192 33.3372 140.978 60.5257L142.977 60.4679C142.16 32.2136 119.727 9.21683 91.1054 6.18355L90.8946 8.17241ZM88.9281 7.99737C89.5868 8.04488 90.2424 8.10329 90.8946 8.17241L91.1054 6.18355C90.4309 6.11207 89.7531 6.05167 89.0719 6.00255L88.9281 7.99737ZM90 9.00533L90 6.99996L88 6.99996L88 9.00533L90 9.00533ZM90 60.4968L90 9.00533H88L88 60.4968H90ZM90 62.4968V60.4968H88V62.4968H90ZM91 61.4968H89V63.4968H91V61.4968ZM141.998 61.4968H91V63.4968H141.998V61.4968ZM141 62.062C141 62.2044 140.999 62.3467 140.998 62.4888L142.998 62.5048C142.999 62.3573 143 62.2097 143 62.062H141ZM140.998 61.6354C140.999 61.7774 141 61.9197 141 62.062H143C143 61.9143 142.999 61.7668 142.998 61.6193L140.998 61.6354Z" fill="#AAAAAA" mask="url(#path-3-outside-2_107_87)"/>
</g>
<g filter="url(#filter2_d_107_87)">
<mask id="path-5-outside-3_107_87" maskUnits="userSpaceOnUse" x="4" y="17" width="135" height="129" fill="black">
<rect fill="white" x="4" y="17" width="135" height="129"/>
<path fill-rule="evenodd" clip-rule="evenodd" d="M41 24.9239C37.471 26.6596 34.1258 28.6919 31 30.9867V132.013C34.1258 134.308 37.471 136.34 41 138.076V24.9239ZM47 140.671C50.2182 141.88 53.5592 142.853 57 143.569V19.4315C53.5592 20.1465 50.2182 21.1197 47 22.3289V140.671ZM71 145C68.2922 145 65.6224 144.843 63 144.538V18.4618C65.6224 18.1569 68.2922 18 71 18V82H73.5V144.955C72.6705 144.985 71.8371 145 71 145ZM79.5 144.478V82H89V142.61C85.919 143.448 82.7464 144.077 79.5 144.478ZM98 139.461C101.138 138.106 104.145 136.522 107 134.731V82H98V139.461ZM123 120.61C120.316 123.909 117.3 126.946 114 129.675V82H123V120.61ZM129 111.828C134.024 102.953 136.911 92.7975 136.998 82H129V111.828ZM17 44.9808C19.3729 41.7389 22.0531 38.7202 25 35.9641V127.036C22.0531 124.28 19.3729 121.261 17 118.019V44.9808ZM11 55.0091C7.14795 63.072 5 72.0447 5 81.5C5 90.9553 7.14795 99.928 11 107.991V55.0091Z"/>
</mask>
<path fill-rule="evenodd" clip-rule="evenodd" d="M41 24.9239C37.471 26.6596 34.1258 28.6919 31 30.9867V132.013C34.1258 134.308 37.471 136.34 41 138.076V24.9239ZM47 140.671C50.2182 141.88 53.5592 142.853 57 143.569V19.4315C53.5592 20.1465 50.2182 21.1197 47 22.3289V140.671ZM71 145C68.2922 145 65.6224 144.843 63 144.538V18.4618C65.6224 18.1569 68.2922 18 71 18V82H73.5V144.955C72.6705 144.985 71.8371 145 71 145ZM79.5 144.478V82H89V142.61C85.919 143.448 82.7464 144.077 79.5 144.478ZM98 139.461C101.138 138.106 104.145 136.522 107 134.731V82H98V139.461ZM123 120.61C120.316 123.909 117.3 126.946 114 129.675V82H123V120.61ZM129 111.828C134.024 102.953 136.911 92.7975 136.998 82H129V111.828ZM17 44.9808C19.3729 41.7389 22.0531 38.7202 25 35.9641V127.036C22.0531 124.28 19.3729 121.261 17 118.019V44.9808ZM11 55.0091C7.14795 63.072 5 72.0447 5 81.5C5 90.9553 7.14795 99.928 11 107.991V55.0091Z" fill="#A020F0"/>
<path d="M31 30.9867L30.4082 30.1806L30 30.4803V30.9867H31ZM41 24.9239H42V23.3177L40.5587 24.0266L41 24.9239ZM31 132.013H30V132.52L30.4082 132.819L31 132.013ZM41 138.076L40.5587 138.973L42 139.682V138.076H41ZM57 143.569L56.7965 144.548L58 144.798V143.569H57ZM47 140.671H46V141.364L46.6483 141.607L47 140.671ZM57 19.4315H58V18.2023L56.7965 18.4524L57 19.4315ZM47 22.3289L46.6483 21.3928L46 21.6363V22.3289H47ZM63 144.538H62V145.429L62.8845 145.532L63 144.538ZM63 18.4618L62.8845 17.4684L62 17.5713V18.4618H63ZM71 18H72V17H71V18ZM71 82H70V83H71V82ZM73.5 82H74.5V81H73.5V82ZM73.5 144.955L73.5358 145.955L74.5 145.92V144.955H73.5ZM79.5 82V81H78.5V82H79.5ZM79.5 144.478H78.5V145.61L79.6228 145.471L79.5 144.478ZM89 82H90V81H89V82ZM89 142.61L89.2626 143.575L90 143.374V142.61H89ZM107 134.731L107.531 135.578L108 135.284V134.731H107ZM98 139.461H97V140.982L98.3965 140.379L98 139.461ZM107 82H108V81H107V82ZM98 82V81H97V82H98ZM114 129.675H113V131.8L114.637 130.445L114 129.675ZM123 120.61L123.776 121.241L124 120.965V120.61H123ZM114 82V81H113V82H114ZM123 82H124V81H123V82ZM129 111.828H128V115.625L129.87 112.321L129 111.828ZM136.998 82L137.998 82.008L138.006 81H136.998V82ZM129 82V81H128V82H129ZM25 35.9641H26V33.6596L24.3169 35.2337L25 35.9641ZM17 44.9808L16.1931 44.3902L16 44.654V44.9808H17ZM25 127.036L24.3169 127.766L26 129.34V127.036H25ZM17 118.019H16V118.346L16.1931 118.61L17 118.019ZM11 55.0091H12L10.0977 54.578L11 55.0091ZM11 107.991L10.0977 108.422L12 107.991H11ZM31.5918 31.7928C34.6703 29.5327 37.9652 27.5309 41.4413 25.8213L40.5587 24.0266C36.9769 25.7882 33.5813 27.8511 30.4082 30.1806L31.5918 31.7928ZM32 132.013V30.9867H30V132.013H32ZM41.4413 137.179C37.9652 135.469 34.6703 133.467 31.5918 131.207L30.4082 132.819C33.5814 135.149 36.9769 137.212 40.5587 138.973L41.4413 137.179ZM40 24.9239V138.076H42V24.9239H40ZM57.2035 142.589C53.8134 141.885 50.5219 140.926 47.3517 139.735L46.6483 141.607C49.9144 142.834 53.305 143.822 56.7965 144.548L57.2035 142.589ZM56 19.4315V143.569H58V19.4315H56ZM47.3517 23.265C50.5219 22.0738 53.8134 21.115 57.2035 20.4105L56.7965 18.4524C53.305 19.178 49.9144 20.1656 46.6483 21.3928L47.3517 23.265ZM48 140.671V22.3289H46V140.671H48ZM62.8845 145.532C65.5452 145.841 68.2535 146 71 146V144C68.3308 144 65.6996 143.845 63.1155 143.545L62.8845 145.532ZM62 18.4618V144.538H64V18.4618H62ZM71 17C68.2535 17 65.5452 17.1591 62.8845 17.4684L63.1155 19.4551C65.6996 19.1547 68.3308 19 71 19V17ZM72 82V18H70V82H72ZM73.5 81H71V83H73.5V81ZM74.5 144.955V82H72.5V144.955H74.5ZM71 146C71.849 146 72.6944 145.985 73.5358 145.955L73.4642 143.956C72.6466 143.985 71.8251 144 71 144V146ZM78.5 82V144.478H80.5V82H78.5ZM89 81H79.5V83H89V81ZM90 142.61V82H88V142.61H90ZM79.6228 145.471C82.9166 145.063 86.1359 144.425 89.2626 143.575L88.7374 141.645C85.7021 142.471 82.5762 143.09 79.3772 143.486L79.6228 145.471ZM106.469 133.884C103.657 135.647 100.694 137.208 97.6035 138.543L98.3965 140.379C101.581 139.003 104.634 137.396 107.531 135.578L106.469 133.884ZM106 82V134.731H108V82H106ZM98 83H107V81H98V83ZM99 139.461V82H97V139.461H99ZM114.637 130.445C117.987 127.675 121.05 124.591 123.776 121.241L122.224 119.979C119.582 123.226 116.612 126.217 113.363 128.904L114.637 130.445ZM113 82V129.675H115V82H113ZM123 81H114V83H123V81ZM124 120.61V82H122V120.61H124ZM129.87 112.321C134.975 103.303 137.91 92.9812 137.998 82.008L135.998 81.992C135.913 92.6137 133.073 102.604 128.13 111.336L129.87 112.321ZM136.998 81H129V83H136.998V81ZM128 82V111.828H130V82H128ZM24.3169 35.2337C21.325 38.032 18.6031 41.0974 16.1931 44.3902L17.8069 45.5714C20.1426 42.3804 22.7813 39.4084 25.6831 36.6944L24.3169 35.2337ZM26 127.036V35.9641H24V127.036H26ZM16.1931 118.61C18.6031 121.903 21.325 124.968 24.3169 127.766L25.6831 126.306C22.7813 123.592 20.1426 120.62 17.8069 117.429L16.1931 118.61ZM16 44.9808V118.019H18V44.9808H16ZM6 81.5C6 72.1979 8.1128 63.3722 11.9023 55.4402L10.0977 54.578C6.1831 62.7719 4 71.8914 4 81.5H6ZM11.9023 107.56C8.1128 99.6278 6 90.8021 6 81.5H4C4 91.1086 6.1831 100.228 10.0977 108.422L11.9023 107.56ZM10 55.0091V107.991H12V55.0091H10Z" fill="#AAAAAA" mask="url(#path-5-outside-3_107_87)"/>
</g>
<path d="M99.5 18V57" stroke="white"/>
<line x1="95.9956" y1="52.9335" x2="137.008" y2="53.0664" stroke="white"/>
<path d="M100.014 45.5002L117.007 45.7501L134 46" stroke="#DDDDDD" stroke-width="0.5" stroke-dasharray="1 1"/>
<path d="M99.9907 38.2499L114.96 38.4376L129.93 38.6253" stroke="#DDDDDD" stroke-width="0.5" stroke-dasharray="1 1"/>
<path d="M100 31.3971L112.887 31.3782L125.774 31.3593" stroke="#DDDDDD" stroke-width="0.5" stroke-dasharray="1 1"/>
<path d="M100 24.5527L110.158 24.5507L120.316 24.5487" stroke="#DDDDDD" stroke-width="0.5" stroke-dasharray="1 1"/>
<line x1="88" y1="56.5" x2="89" y2="56.5" stroke="white"/>
<path d="M101 36.9755C108.2 29.7755 111 33.9755 111.5 36.9755C112 39.9755 115.159 39.9834 118 40.4755C121.132 41.018 123.064 37.7565 126 38.9755C127.663 39.6658 129.5 41.9755 129.5 41.9755L133 45.4755" stroke="#00FF00" stroke-opacity="0.4"/>
<line x1="133.5" y1="43" x2="133.5" y2="46" stroke="#00FF00" stroke-opacity="0.4"/>
<line x1="131" y1="45.5" x2="133" y2="45.5" stroke="#00FF00" stroke-opacity="0.4"/>
<defs>
<filter id="filter0_d_107_87" x="78" y="0.840942" width="73" height="74.1591" filterUnits="userSpaceOnUse" color-interpolation-filters="sRGB">
<feFlood flood-opacity="0" result="BackgroundImageFix"/>
<feColorMatrix in="SourceAlpha" type="matrix" values="0 0 0 0 0 0 0 0 0 0 0 0 0 0 0 0 0 0 127 0" result="hardAlpha"/>
<feOffset dy="4"/>
<feGaussianBlur stdDeviation="2"/>
<feComposite in2="hardAlpha" operator="out"/>
<feColorMatrix type="matrix" values="0 0 0 0 0 0 0 0 0 0 0 0 0 0 0 0 0 0 0.25 0"/>
<feBlend mode="normal" in2="BackgroundImageFix" result="effect1_dropShadow_107_87"/>
<feBlend mode="normal" in="SourceGraphic" in2="effect1_dropShadow_107_87" result="shape"/>
</filter>
<filter id="filter1_d_107_87" x="82" y="3.77576" width="67" height="69.721" filterUnits="userSpaceOnUse" color-interpolation-filters="sRGB">
<feFlood flood-opacity="0" result="BackgroundImageFix"/>
<feColorMatrix in="SourceAlpha" type="matrix" values="0 0 0 0 0 0 0 0 0 0 0 0 0 0 0 0 0 0 127 0" result="hardAlpha"/>
<feOffset dy="4"/>
<feGaussianBlur stdDeviation="2"/>
<feComposite in2="hardAlpha" operator="out"/>
<feColorMatrix type="matrix" values="0 0 0 0 0 0 0 0 0 0 0 0 0 0 0 0 0 0 0.25 0"/>
<feBlend mode="normal" in2="BackgroundImageFix" result="effect1_dropShadow_107_87"/>
<feBlend mode="normal" in="SourceGraphic" in2="effect1_dropShadow_107_87" result="shape"/>
</filter>
<filter id="filter2_d_107_87" x="0" y="17" width="142.006" height="137" filterUnits="userSpaceOnUse" color-interpolation-filters="sRGB">
<feFlood flood-opacity="0" result="BackgroundImageFix"/>
<feColorMatrix in="SourceAlpha" type="matrix" values="0 0 0 0 0 0 0 0 0 0 0 0 0 0 0 0 0 0 127 0" result="hardAlpha"/>
<feOffset dy="4"/>
<feGaussianBlur stdDeviation="2"/>
<feComposite in2="hardAlpha" operator="out"/>
<feColorMatrix type="matrix" values="0 0 0 0 0 0 0 0 0 0 0 0 0 0 0 0 0 0 0.25 0"/>
<feBlend mode="normal" in2="BackgroundImageFix" result="effect1_dropShadow_107_87"/>
<feBlend mode="normal" in="SourceGraphic" in2="effect1_dropShadow_107_87" result="shape"/>
</filter>
</defs>
</svg>
